 http://www.imdb.com/title/tt0052926/ 
http://www.shotpix.com/images/19061304758402247152.jpg 
http://www.shotpix.com/images/53738683053506476577.jpg


General
Complete name                            : Insaan Jaag Utha (1959).avi
Format                                   : AVI
Format/Info                              : Audio Video Interleave
Format profile                           : OpenDML
File size                                : 1.13 GiB
Duration                                 : 2h 21mn
Overall bit rate                         : 1 148 Kbps
Writing library                          : MPlayer

Video
ID                                       : 0
Format                                   : MPEG-4 Visual
Format profile                           : Advanced Simple@L5
Format settings, BVOP                    : 2
Format settings, QPel                    : No
Format settings, GMC                     : No warppoints
Format settings, Matrix                  : Default (H.263)
Muxing mode                              : Packed bitstream
Codec ID                                 : XVID
Codec ID/Hint                            : XviD
Duration                                 : 2h 21mn
Bit rate                                 : 950 Kbps
Width                                    : 640 pixels
Height                                   : 480 pixels
Display aspect ratio                     : 4:3
Frame rate                               : 25.000 fps
Color space                              : YUV
Chroma subsampling                       : 4:2:0
Bit depth                                : 8 bits
Scan type                                : Progressive
Compression mode                         : Lossy
Bits/(Pixel*Frame)                       : 0.124
Stream size                              : 959 MiB (83%)
Writing library                          : XviD 64

Audio
ID                                       : 1
Format                                   : AC-3
Format/Info                              : Audio Coding 3
Mode extension                           : CM (complete main)
Codec ID                                 : 2000
Duration                                 : 2h 21mn
Bit rate mode                            : Constant
Bit rate                                 : 192 Kbps
Channel(s)                               : 2 channels
Channel positions                        : Front: L R
Sampling rate                            : 44.1 KHz
Bit depth                                : 16 bits
Compression mode                         : Lossy
Stream size                              : 194 MiB (17%)
Alignment                                : Aligned on interleaves
Interleave, duration                     : 488 ms (12.19 video frames)
Interleave, preload duration             : 975 ms

 
http://www.shotpix.com/images/91738010976671073993.jpg 
http://www.shotpix.com/images/38608447572375265119.jpg 
http://www.shotpix.com/images/02796609640268256980.jpg 
http://www.shotpix.com/images/21293512369020904468.jpg 
http://www.shotpix.com/images/66977336381973609910.jpg 
http://www.shotpix.com/images/73388307791883061005.jpg

 
http://picturestack.com/267/765/Y8Rthanksmln.gif
 
http://i.minus.com/jbdy4dIfjMkrDT.PNG